<mxfile host="app.diagrams.net" modified="2023-12-08T19:24:32.511Z" agent="Mozilla/5.0 (Windows NT 10.0; Win64; x64) AppleWebKit/537.36 (KHTML, like Gecko) Chrome/120.0.0.0 Safari/537.36" etag="0im0YIjY2AkR0JuF6Mnw" version="22.1.7" type="github">
  <diagram name="Page-1" id="03018318-947c-dd8e-b7a3-06fadd420f32">
    <mxGraphModel dx="1574" dy="921" grid="1" gridSize="10" guides="1" tooltips="1" connect="1" arrows="1" fold="1" page="1" pageScale="1" pageWidth="1400" pageHeight="850" background="none" math="0" shadow="0">
      <root>
        <mxCell id="0" />
        <mxCell id="1" parent="0" />
        <mxCell id="zn1Wa84A3hgmdE-mFcP4-300" value="" style="strokeWidth=1;shadow=0;dashed=0;align=center;html=1;shape=mxgraph.mockup.rrect;rSize=10;strokeColor=#666666;" vertex="1" parent="1">
          <mxGeometry x="60" y="65" width="340" height="735" as="geometry" />
        </mxCell>
        <mxCell id="zn1Wa84A3hgmdE-mFcP4-301" value="Диагностика" style="strokeColor=inherit;fillColor=inherit;gradientColor=inherit;strokeWidth=1;shadow=0;dashed=0;align=center;html=1;shape=mxgraph.mockup.rrect;rSize=0;fontSize=17;fontColor=#666666;fontStyle=1;resizeWidth=1;whiteSpace=wrap;" vertex="1" parent="zn1Wa84A3hgmdE-mFcP4-300">
          <mxGeometry width="340" height="50" relative="1" as="geometry">
            <mxPoint y="50" as="offset" />
          </mxGeometry>
        </mxCell>
        <mxCell id="zn1Wa84A3hgmdE-mFcP4-302" value="..." style="strokeColor=inherit;fillColor=inherit;gradientColor=inherit;strokeWidth=1;shadow=0;dashed=0;align=center;html=1;shape=mxgraph.mockup.rrect;rSize=0;fontSize=17;fontColor=#666666;fontStyle=1;resizeWidth=1;whiteSpace=wrap;" vertex="1" parent="zn1Wa84A3hgmdE-mFcP4-300">
          <mxGeometry width="340" height="50" relative="1" as="geometry">
            <mxPoint y="100" as="offset" />
          </mxGeometry>
        </mxCell>
        <mxCell id="zn1Wa84A3hgmdE-mFcP4-303" value="Wi-Fi" style="strokeColor=inherit;fillColor=inherit;gradientColor=inherit;strokeWidth=1;shadow=0;dashed=0;align=center;html=1;shape=mxgraph.mockup.bottomButton;rSize=10;fontSize=17;fontColor=#666666;fontStyle=1;resizeWidth=1;whiteSpace=wrap;" vertex="1" parent="zn1Wa84A3hgmdE-mFcP4-300">
          <mxGeometry y="1" width="340" height="50" relative="1" as="geometry">
            <mxPoint y="-50" as="offset" />
          </mxGeometry>
        </mxCell>
        <mxCell id="zn1Wa84A3hgmdE-mFcP4-304" value="Просмотр графиков" style="strokeWidth=1;shadow=0;dashed=0;align=center;html=1;shape=mxgraph.mockup.topButton;rSize=10;fontSize=17;fontColor=#ffffff;fontStyle=1;fillColor=#008cff;strokeColor=#008cff;resizeWidth=1;whiteSpace=wrap;" vertex="1" parent="zn1Wa84A3hgmdE-mFcP4-300">
          <mxGeometry width="340" height="50" relative="1" as="geometry" />
        </mxCell>
        <mxCell id="zn1Wa84A3hgmdE-mFcP4-305" value="..." style="strokeColor=inherit;fillColor=inherit;gradientColor=inherit;strokeWidth=1;shadow=0;dashed=0;align=center;html=1;shape=mxgraph.mockup.rrect;rSize=0;fontSize=17;fontColor=#666666;fontStyle=1;resizeWidth=1;whiteSpace=wrap;" vertex="1" parent="zn1Wa84A3hgmdE-mFcP4-300">
          <mxGeometry y="153.125" width="340" height="51.041666666666664" as="geometry" />
        </mxCell>
        <mxCell id="zn1Wa84A3hgmdE-mFcP4-306" value="Button 3" style="strokeColor=inherit;fillColor=inherit;gradientColor=inherit;strokeWidth=1;shadow=0;dashed=0;align=center;html=1;shape=mxgraph.mockup.rrect;rSize=0;fontSize=17;fontColor=#666666;fontStyle=1;resizeWidth=1;whiteSpace=wrap;" vertex="1" parent="zn1Wa84A3hgmdE-mFcP4-300">
          <mxGeometry y="204.16666666666666" width="340" height="51.041666666666664" as="geometry" />
        </mxCell>
        <mxCell id="zn1Wa84A3hgmdE-mFcP4-307" value="Button 3" style="strokeColor=inherit;fillColor=inherit;gradientColor=inherit;strokeWidth=1;shadow=0;dashed=0;align=center;html=1;shape=mxgraph.mockup.rrect;rSize=0;fontSize=17;fontColor=#666666;fontStyle=1;resizeWidth=1;whiteSpace=wrap;" vertex="1" parent="zn1Wa84A3hgmdE-mFcP4-300">
          <mxGeometry y="255.20833333333331" width="340" height="51.041666666666664" as="geometry" />
        </mxCell>
        <mxCell id="zn1Wa84A3hgmdE-mFcP4-308" value="Button 3" style="strokeColor=inherit;fillColor=inherit;gradientColor=inherit;strokeWidth=1;shadow=0;dashed=0;align=center;html=1;shape=mxgraph.mockup.rrect;rSize=0;fontSize=17;fontColor=#666666;fontStyle=1;resizeWidth=1;whiteSpace=wrap;" vertex="1" parent="zn1Wa84A3hgmdE-mFcP4-300">
          <mxGeometry y="306.25" width="340" height="51.041666666666664" as="geometry" />
        </mxCell>
        <mxCell id="zn1Wa84A3hgmdE-mFcP4-309" value="Button 3" style="strokeColor=inherit;fillColor=inherit;gradientColor=inherit;strokeWidth=1;shadow=0;dashed=0;align=center;html=1;shape=mxgraph.mockup.rrect;rSize=0;fontSize=17;fontColor=#666666;fontStyle=1;resizeWidth=1;whiteSpace=wrap;" vertex="1" parent="zn1Wa84A3hgmdE-mFcP4-300">
          <mxGeometry y="357.29166666666663" width="340" height="51.041666666666664" as="geometry" />
        </mxCell>
        <mxCell id="zn1Wa84A3hgmdE-mFcP4-310" value="Button 3" style="strokeColor=inherit;fillColor=inherit;gradientColor=inherit;strokeWidth=1;shadow=0;dashed=0;align=center;html=1;shape=mxgraph.mockup.rrect;rSize=0;fontSize=17;fontColor=#666666;fontStyle=1;resizeWidth=1;whiteSpace=wrap;" vertex="1" parent="zn1Wa84A3hgmdE-mFcP4-300">
          <mxGeometry y="408.3333333333333" width="340" height="51.041666666666664" as="geometry" />
        </mxCell>
        <mxCell id="zn1Wa84A3hgmdE-mFcP4-311" value="Button 3" style="strokeColor=inherit;fillColor=inherit;gradientColor=inherit;strokeWidth=1;shadow=0;dashed=0;align=center;html=1;shape=mxgraph.mockup.rrect;rSize=0;fontSize=17;fontColor=#666666;fontStyle=1;resizeWidth=1;whiteSpace=wrap;" vertex="1" parent="zn1Wa84A3hgmdE-mFcP4-300">
          <mxGeometry y="459.37499999999994" width="340" height="51.041666666666664" as="geometry" />
        </mxCell>
        <mxCell id="zn1Wa84A3hgmdE-mFcP4-312" value="Button 3" style="strokeColor=inherit;fillColor=inherit;gradientColor=inherit;strokeWidth=1;shadow=0;dashed=0;align=center;html=1;shape=mxgraph.mockup.rrect;rSize=0;fontSize=17;fontColor=#666666;fontStyle=1;resizeWidth=1;whiteSpace=wrap;" vertex="1" parent="zn1Wa84A3hgmdE-mFcP4-300">
          <mxGeometry y="510.41666666666663" width="340" height="51.041666666666664" as="geometry" />
        </mxCell>
        <mxCell id="zn1Wa84A3hgmdE-mFcP4-313" value="Button 3" style="strokeColor=inherit;fillColor=inherit;gradientColor=inherit;strokeWidth=1;shadow=0;dashed=0;align=center;html=1;shape=mxgraph.mockup.rrect;rSize=0;fontSize=17;fontColor=#666666;fontStyle=1;resizeWidth=1;whiteSpace=wrap;" vertex="1" parent="zn1Wa84A3hgmdE-mFcP4-300">
          <mxGeometry y="561.4583333333333" width="340" height="51.041666666666664" as="geometry" />
        </mxCell>
        <mxCell id="zn1Wa84A3hgmdE-mFcP4-314" value="Button 3" style="strokeColor=inherit;fillColor=inherit;gradientColor=inherit;strokeWidth=1;shadow=0;dashed=0;align=center;html=1;shape=mxgraph.mockup.rrect;rSize=0;fontSize=17;fontColor=#666666;fontStyle=1;resizeWidth=1;whiteSpace=wrap;" vertex="1" parent="zn1Wa84A3hgmdE-mFcP4-300">
          <mxGeometry y="612.5" width="340" height="51.041666666666664" as="geometry" />
        </mxCell>
        <mxCell id="zn1Wa84A3hgmdE-mFcP4-490" value="" style="sketch=0;aspect=fixed;pointerEvents=1;shadow=0;dashed=0;html=1;strokeColor=none;labelPosition=center;verticalLabelPosition=bottom;verticalAlign=top;align=center;fillColor=#00188D;shape=mxgraph.mscae.enterprise.usb" vertex="1" parent="zn1Wa84A3hgmdE-mFcP4-300">
          <mxGeometry x="30" y="10.208333333333332" width="50" height="23" as="geometry" />
        </mxCell>
        <mxCell id="zn1Wa84A3hgmdE-mFcP4-340" value="" style="strokeWidth=1;shadow=0;dashed=0;align=center;html=1;shape=mxgraph.mockup.containers.marginRect2;rectMarginTop=32;strokeColor=#666666;gradientColor=none;whiteSpace=wrap;" vertex="1" parent="1">
          <mxGeometry x="460" y="65" width="900" height="735" as="geometry" />
        </mxCell>
        <mxCell id="zn1Wa84A3hgmdE-mFcP4-341" value="f(t) Глубины (м.)" style="strokeColor=inherit;fillColor=inherit;gradientColor=inherit;strokeWidth=1;shadow=0;dashed=0;align=center;html=1;shape=mxgraph.mockup.containers.rrect;rSize=0;fontSize=17;fontColor=#666666;gradientColor=none;" vertex="1" parent="zn1Wa84A3hgmdE-mFcP4-340">
          <mxGeometry width="170" height="25" relative="1" as="geometry">
            <mxPoint x="10" as="offset" />
          </mxGeometry>
        </mxCell>
        <mxCell id="zn1Wa84A3hgmdE-mFcP4-342" value="f(t) Натяжения (кг.)&amp;nbsp;" style="strokeWidth=1;shadow=0;dashed=0;align=center;html=1;shape=mxgraph.mockup.containers.rrect;rSize=0;fontSize=17;fontColor=#ffffff;strokeColor=#008cff;fillColor=#008cff;" vertex="1" parent="zn1Wa84A3hgmdE-mFcP4-340">
          <mxGeometry width="170" height="25" relative="1" as="geometry">
            <mxPoint x="190" as="offset" />
          </mxGeometry>
        </mxCell>
        <mxCell id="zn1Wa84A3hgmdE-mFcP4-343" value="f(t) ММГ" style="strokeColor=inherit;fillColor=inherit;gradientColor=inherit;strokeWidth=1;shadow=0;dashed=0;align=center;html=1;shape=mxgraph.mockup.containers.rrect;rSize=0;fontSize=17;fontColor=#666666;gradientColor=none;" vertex="1" parent="zn1Wa84A3hgmdE-mFcP4-340">
          <mxGeometry width="150" height="25" relative="1" as="geometry">
            <mxPoint x="370" as="offset" />
          </mxGeometry>
        </mxCell>
        <mxCell id="zn1Wa84A3hgmdE-mFcP4-344" value="" style="strokeWidth=1;shadow=0;dashed=0;align=center;html=1;shape=mxgraph.mockup.containers.topButton;rSize=5;strokeColor=#008cff;fillColor=#008cff;gradientColor=none;resizeWidth=1;movable=0;deletable=1;" vertex="1" parent="zn1Wa84A3hgmdE-mFcP4-340">
          <mxGeometry width="900.0000000000001" height="7" relative="1" as="geometry">
            <mxPoint y="25" as="offset" />
          </mxGeometry>
        </mxCell>
        <mxCell id="zn1Wa84A3hgmdE-mFcP4-480" value="" style="verticalLabelPosition=bottom;shadow=0;dashed=0;align=center;html=1;verticalAlign=top;strokeWidth=1;shape=mxgraph.mockup.graphics.lineChart;strokeColor=none;strokeColor2=#666666;strokeColor3=#008cff;strokeColor4=#dddddd;" vertex="1" parent="zn1Wa84A3hgmdE-mFcP4-340">
          <mxGeometry x="60" y="51.04" width="814.43" height="628.96" as="geometry" />
        </mxCell>
        <mxCell id="zn1Wa84A3hgmdE-mFcP4-488" value="Uпост(t)" style="strokeColor=inherit;fillColor=inherit;gradientColor=inherit;strokeWidth=1;shadow=0;dashed=0;align=center;html=1;shape=mxgraph.mockup.containers.rrect;rSize=0;fontSize=17;fontColor=#666666;gradientColor=none;" vertex="1" parent="zn1Wa84A3hgmdE-mFcP4-340">
          <mxGeometry x="542.0454545454545" width="153.4090909090909" height="25.520833333333332" as="geometry" />
        </mxCell>
        <mxCell id="zn1Wa84A3hgmdE-mFcP4-489" value="Выбрать дату" style="strokeColor=inherit;fillColor=inherit;gradientColor=inherit;strokeWidth=1;shadow=0;dashed=0;align=center;html=1;shape=mxgraph.mockup.containers.rrect;rSize=0;fontSize=17;fontColor=#666666;gradientColor=none;" vertex="1" parent="zn1Wa84A3hgmdE-mFcP4-340">
          <mxGeometry x="705.6818181818181" width="153.4090909090909" height="25.520833333333332" as="geometry" />
        </mxCell>
        <mxCell id="zn1Wa84A3hgmdE-mFcP4-487" value="ММГ(t)" style="strokeColor=inherit;fillColor=inherit;gradientColor=inherit;strokeWidth=1;shadow=0;dashed=0;align=center;html=1;shape=mxgraph.mockup.containers.rrect;rSize=0;fontSize=17;fontColor=#666666;gradientColor=none;" vertex="1" parent="zn1Wa84A3hgmdE-mFcP4-340">
          <mxGeometry x="375" width="150" height="25.520833333333332" as="geometry" />
        </mxCell>
        <UserObject label="&lt;font style=&quot;font-size: 14px;&quot;&gt;0 &lt;span style=&quot;white-space: pre;&quot;&gt;&#x9;&lt;/span&gt;1 &lt;span style=&quot;white-space: pre;&quot;&gt;&#x9;&lt;/span&gt;2 &lt;span style=&quot;white-space: pre;&quot;&gt;&#x9;&lt;/span&gt;3 &lt;span style=&quot;white-space: pre;&quot;&gt;&#x9;&lt;/span&gt;4 &lt;span style=&quot;white-space: pre;&quot;&gt;&#x9;&lt;/span&gt;5 &lt;span style=&quot;white-space: pre;&quot;&gt;&#x9;&lt;/span&gt;6 &lt;span style=&quot;white-space: pre;&quot;&gt;&#x9;&lt;/span&gt;7 &lt;span style=&quot;white-space: pre;&quot;&gt;&#x9;&lt;/span&gt;8 &lt;span style=&quot;white-space: pre;&quot;&gt;&#x9;&lt;/span&gt;9 &lt;span style=&quot;white-space: pre;&quot;&gt;&#x9;&lt;/span&gt;10 &lt;span style=&quot;white-space: pre;&quot;&gt;&#x9;&lt;/span&gt;11 &lt;span style=&quot;white-space: pre;&quot;&gt;&#x9;&lt;/span&gt;12 &lt;span style=&quot;white-space: pre;&quot;&gt;&#x9;&lt;/span&gt;13 &lt;span style=&quot;white-space: pre;&quot;&gt;&#x9;&lt;/span&gt;14 &lt;span style=&quot;white-space: pre;&quot;&gt;&#x9;&lt;/span&gt;15 &lt;span style=&quot;white-space: pre;&quot;&gt;&#x9;&lt;/span&gt;16 &lt;span style=&quot;white-space: pre;&quot;&gt;&#x9;&lt;/span&gt;17 &lt;span style=&quot;white-space: pre;&quot;&gt;&#x9;&lt;/span&gt;18 &lt;span style=&quot;white-space: pre;&quot;&gt;&#x9;&lt;/span&gt;19 &lt;span style=&quot;white-space: pre;&quot;&gt;&#x9;&lt;/span&gt;20 &lt;span style=&quot;white-space: pre;&quot;&gt;&#x9;&lt;/span&gt;21 &lt;span style=&quot;white-space: pre;&quot;&gt;&#x9;&lt;/span&gt;22 &lt;span style=&quot;white-space: pre;&quot;&gt;&#x9;&lt;/span&gt;23 &lt;span style=&quot;white-space: pre;&quot;&gt;&#x9;&lt;/span&gt;24 (часы)&lt;/font&gt;" placeholders="1" id="zn1Wa84A3hgmdE-mFcP4-558">
          <mxCell style="text;html=1;strokeColor=none;fillColor=none;align=center;verticalAlign=middle;whiteSpace=wrap;overflow=hidden;" vertex="1" parent="zn1Wa84A3hgmdE-mFcP4-340">
            <mxGeometry x="60" y="685" width="820" height="20" as="geometry" />
          </mxCell>
        </UserObject>
        <UserObject label="&lt;p style=&quot;line-height: 120%;&quot;&gt;&lt;font style=&quot;font-size: 23px;&quot;&gt;%date{dd-mm-yyyy HH:MM:ss}%&lt;/font&gt;&lt;/p&gt;" placeholders="1" id="zn1Wa84A3hgmdE-mFcP4-553">
          <mxCell style="text;html=1;strokeColor=none;fillColor=none;align=center;verticalAlign=middle;whiteSpace=wrap;overflow=hidden;strokeWidth=3;" vertex="1" parent="1">
            <mxGeometry x="100" y="10" width="240" height="40" as="geometry" />
          </mxCell>
        </UserObject>
        <mxCell id="zn1Wa84A3hgmdE-mFcP4-556" value="" style="html=1;verticalLabelPosition=bottom;align=center;labelBackgroundColor=#ffffff;verticalAlign=top;strokeWidth=2;strokeColor=#0080F0;shadow=0;dashed=0;shape=mxgraph.ios7.icons.wifi;pointerEvents=1" vertex="1" parent="1">
          <mxGeometry x="1190" y="14.5" width="40" height="31" as="geometry" />
        </mxCell>
        <mxCell id="zn1Wa84A3hgmdE-mFcP4-557" value="" style="sketch=0;pointerEvents=1;shadow=0;dashed=0;html=1;strokeColor=none;fillColor=#005F4B;labelPosition=center;verticalLabelPosition=bottom;verticalAlign=top;align=center;outlineConnect=0;shape=mxgraph.veeam2.usb_drive;" vertex="1" parent="1">
          <mxGeometry x="1260" y="15.5" width="90" height="30" as="geometry" />
        </mxCell>
        <UserObject label="&lt;p style=&quot;line-height: 120%;&quot;&gt;&lt;font style=&quot;font-size: 23px;&quot;&gt;&amp;nbsp; Текущая дата графика: %date{dd-mm-yyyy}%&lt;/font&gt;&lt;/p&gt;" placeholders="1" id="zn1Wa84A3hgmdE-mFcP4-559">
          <mxCell style="text;html=1;strokeColor=none;fillColor=none;align=center;verticalAlign=middle;whiteSpace=wrap;overflow=hidden;strokeWidth=3;" vertex="1" parent="1">
            <mxGeometry x="600" y="10" width="560" height="40" as="geometry" />
          </mxCell>
        </UserObject>
      </root>
    </mxGraphModel>
  </diagram>
</mxfile>
